<mxfile host="65bd71144e">
    <diagram id="UaLp_aYed7sDHrJZGCwY" name="Medicine Logistics">
        <mxGraphModel dx="744" dy="573" grid="1" gridSize="10" guides="1" tooltips="1" connect="1" arrows="1" fold="1" page="1" pageScale="1" pageWidth="2000" pageHeight="1600" background="#F1FAEE" math="0" shadow="0">
            <root>
                <mxCell id="0"/>
                <mxCell id="1" parent="0"/>
                <mxCell id="1sYgjcY_VEmMZmWDU-1L-13" value="" style="verticalLabelPosition=bottom;html=1;verticalAlign=top;align=center;shape=mxgraph.floorplan.wall;direction=south;rotation=0;" parent="1" vertex="1">
                    <mxGeometry x="70.51" y="50" width="10" height="830" as="geometry"/>
                </mxCell>
                <mxCell id="1sYgjcY_VEmMZmWDU-1L-14" value="" style="verticalLabelPosition=bottom;html=1;verticalAlign=top;align=center;shape=mxgraph.floorplan.wall;rotation=0;" parent="1" vertex="1">
                    <mxGeometry x="80" y="50" width="880" height="10" as="geometry"/>
                </mxCell>
                <mxCell id="1sYgjcY_VEmMZmWDU-1L-16" value="" style="verticalLabelPosition=bottom;html=1;verticalAlign=top;align=center;shape=mxgraph.floorplan.wall;direction=south;rotation=0;" parent="1" vertex="1">
                    <mxGeometry x="430.51" y="60" width="10" height="190" as="geometry"/>
                </mxCell>
                <mxCell id="1sYgjcY_VEmMZmWDU-1L-17" value="" style="verticalLabelPosition=bottom;html=1;verticalAlign=top;align=center;shape=mxgraph.floorplan.wall;direction=south;rotation=0;" parent="1" vertex="1">
                    <mxGeometry x="600.51" y="60" width="10" height="195" as="geometry"/>
                </mxCell>
                <mxCell id="1sYgjcY_VEmMZmWDU-1L-18" value="" style="verticalLabelPosition=bottom;html=1;verticalAlign=top;align=center;shape=mxgraph.floorplan.wall;direction=south;rotation=0;" parent="1" vertex="1">
                    <mxGeometry x="770.51" y="60" width="10" height="190" as="geometry"/>
                </mxCell>
                <mxCell id="1sYgjcY_VEmMZmWDU-1L-20" value="" style="verticalLabelPosition=bottom;html=1;verticalAlign=top;align=center;shape=mxgraph.floorplan.wall;rotation=0;" parent="1" vertex="1">
                    <mxGeometry x="670.51" y="245" width="120" height="10" as="geometry"/>
                </mxCell>
                <mxCell id="1sYgjcY_VEmMZmWDU-1L-21" value="" style="verticalLabelPosition=bottom;html=1;verticalAlign=top;align=center;shape=mxgraph.floorplan.wall;rotation=0;" parent="1" vertex="1">
                    <mxGeometry x="390.51" y="245" width="150" height="10" as="geometry"/>
                </mxCell>
                <mxCell id="1sYgjcY_VEmMZmWDU-1L-23" value="" style="verticalLabelPosition=bottom;html=1;verticalAlign=top;align=center;shape=mxgraph.floorplan.wall;rotation=0;" parent="1" vertex="1">
                    <mxGeometry x="840.51" y="245" width="119.49" height="10" as="geometry"/>
                </mxCell>
                <mxCell id="1sYgjcY_VEmMZmWDU-1L-24" value="" style="verticalLabelPosition=bottom;html=1;verticalAlign=top;align=center;shape=mxgraph.floorplan.wall;direction=south;rotation=0;" parent="1" vertex="1">
                    <mxGeometry x="950.51" y="50" width="10" height="727" as="geometry"/>
                </mxCell>
                <mxCell id="1sYgjcY_VEmMZmWDU-1L-25" value="" style="verticalLabelPosition=bottom;html=1;verticalAlign=top;align=center;shape=mxgraph.floorplan.wall;rotation=0;" parent="1" vertex="1">
                    <mxGeometry x="260.51" y="330" width="110" height="10" as="geometry"/>
                </mxCell>
                <mxCell id="1sYgjcY_VEmMZmWDU-1L-26" value="" style="verticalLabelPosition=bottom;html=1;verticalAlign=top;align=center;shape=mxgraph.floorplan.wall;rotation=0;" parent="1" vertex="1">
                    <mxGeometry x="80.50999999999999" y="615" width="280" height="10" as="geometry"/>
                </mxCell>
                <mxCell id="1sYgjcY_VEmMZmWDU-1L-30" value="" style="verticalLabelPosition=bottom;html=1;verticalAlign=top;align=center;shape=mxgraph.floorplan.wall;direction=south;rotation=0;" parent="1" vertex="1">
                    <mxGeometry x="590.51" y="490" width="10" height="10" as="geometry"/>
                </mxCell>
                <mxCell id="1sYgjcY_VEmMZmWDU-1L-31" value="" style="verticalLabelPosition=bottom;html=1;verticalAlign=top;align=center;shape=mxgraph.floorplan.wall;direction=south;rotation=0;" parent="1" vertex="1">
                    <mxGeometry x="890.51" y="330" width="10" height="160" as="geometry"/>
                </mxCell>
                <mxCell id="1sYgjcY_VEmMZmWDU-1L-33" value="" style="verticalLabelPosition=bottom;html=1;verticalAlign=top;align=center;shape=mxgraph.floorplan.wall;direction=south;rotation=0;" parent="1" vertex="1">
                    <mxGeometry x="460.51" y="480" width="10" height="150" as="geometry"/>
                </mxCell>
                <mxCell id="1sYgjcY_VEmMZmWDU-1L-34" value="" style="verticalLabelPosition=bottom;html=1;verticalAlign=top;align=center;shape=mxgraph.floorplan.wall;direction=south;rotation=0;" parent="1" vertex="1">
                    <mxGeometry x="360.51" y="330" width="10" height="310" as="geometry"/>
                </mxCell>
                <mxCell id="1sYgjcY_VEmMZmWDU-1L-35" value="" style="verticalLabelPosition=bottom;html=1;verticalAlign=top;align=center;shape=mxgraph.floorplan.wall;rotation=0;" parent="1" vertex="1">
                    <mxGeometry x="600.51" y="330" width="290" height="10" as="geometry"/>
                </mxCell>
                <mxCell id="1sYgjcY_VEmMZmWDU-1L-36" value="" style="verticalLabelPosition=bottom;html=1;verticalAlign=top;align=center;shape=mxgraph.floorplan.wall;direction=south;rotation=0;" parent="1" vertex="1">
                    <mxGeometry x="460.51" y="330" width="10" height="310" as="geometry"/>
                </mxCell>
                <mxCell id="1sYgjcY_VEmMZmWDU-1L-37" value="" style="verticalLabelPosition=bottom;html=1;verticalAlign=top;align=center;shape=mxgraph.floorplan.wall;rotation=0;" parent="1" vertex="1">
                    <mxGeometry x="80.50999999999999" y="730" width="290" height="10" as="geometry"/>
                </mxCell>
                <mxCell id="1sYgjcY_VEmMZmWDU-1L-38" value="" style="verticalLabelPosition=bottom;html=1;verticalAlign=top;align=center;shape=mxgraph.floorplan.wall;rotation=0;" parent="1" vertex="1">
                    <mxGeometry x="70.50999999999999" y="860" width="160" height="10" as="geometry"/>
                </mxCell>
                <mxCell id="1sYgjcY_VEmMZmWDU-1L-39" value="" style="verticalLabelPosition=bottom;html=1;verticalAlign=top;align=center;shape=mxgraph.floorplan.wall;rotation=0;" parent="1" vertex="1">
                    <mxGeometry x="80.50999999999999" y="980" width="280" height="10" as="geometry"/>
                </mxCell>
                <mxCell id="1sYgjcY_VEmMZmWDU-1L-40" value="" style="verticalLabelPosition=bottom;html=1;verticalAlign=top;align=center;shape=mxgraph.floorplan.wall;direction=south;rotation=0;" parent="1" vertex="1">
                    <mxGeometry x="360.51" y="1000" width="10" height="60" as="geometry"/>
                </mxCell>
                <mxCell id="1sYgjcY_VEmMZmWDU-1L-41" value="" style="verticalLabelPosition=bottom;html=1;verticalAlign=top;align=center;shape=mxgraph.floorplan.wall;direction=south;rotation=0;" parent="1" vertex="1">
                    <mxGeometry x="229.51" y="1020" width="10" height="270" as="geometry"/>
                </mxCell>
                <mxCell id="1sYgjcY_VEmMZmWDU-1L-42" value="" style="verticalLabelPosition=bottom;html=1;verticalAlign=top;align=center;shape=mxgraph.floorplan.wall;rotation=0;" parent="1" vertex="1">
                    <mxGeometry x="240.51" y="1110" width="130" height="10" as="geometry"/>
                </mxCell>
                <mxCell id="1sYgjcY_VEmMZmWDU-1L-43" value="" style="verticalLabelPosition=bottom;html=1;verticalAlign=top;align=center;shape=mxgraph.floorplan.wall;direction=south;rotation=0;" parent="1" vertex="1">
                    <mxGeometry x="360.51" y="1180" width="10" height="110" as="geometry"/>
                </mxCell>
                <mxCell id="1sYgjcY_VEmMZmWDU-1L-44" value="" style="verticalLabelPosition=bottom;html=1;verticalAlign=top;align=center;shape=mxgraph.floorplan.wall;rotation=0;" parent="1" vertex="1">
                    <mxGeometry x="210.51" y="1280" width="160" height="10" as="geometry"/>
                </mxCell>
                <mxCell id="1sYgjcY_VEmMZmWDU-1L-45" value="" style="verticalLabelPosition=bottom;html=1;verticalAlign=top;align=center;shape=mxgraph.floorplan.wall;rotation=0;" parent="1" vertex="1">
                    <mxGeometry x="80.50999999999999" y="1280" width="80" height="10" as="geometry"/>
                </mxCell>
                <mxCell id="1sYgjcY_VEmMZmWDU-1L-47" value="" style="verticalLabelPosition=bottom;html=1;verticalAlign=top;align=center;shape=mxgraph.floorplan.wall;direction=south;rotation=0;" parent="1" vertex="1">
                    <mxGeometry x="460.51" y="980" width="10" height="30" as="geometry"/>
                </mxCell>
                <mxCell id="1sYgjcY_VEmMZmWDU-1L-48" value="" style="verticalLabelPosition=bottom;html=1;verticalAlign=top;align=center;shape=mxgraph.floorplan.wall;direction=south;rotation=0;" parent="1" vertex="1">
                    <mxGeometry x="600.51" y="1000" width="10" height="10" as="geometry"/>
                </mxCell>
                <mxCell id="1sYgjcY_VEmMZmWDU-1L-49" value="" style="verticalLabelPosition=bottom;html=1;verticalAlign=top;align=center;shape=mxgraph.floorplan.wall;rotation=0;" parent="1" vertex="1">
                    <mxGeometry x="610.51" y="1110" width="120" height="10" as="geometry"/>
                </mxCell>
                <mxCell id="1sYgjcY_VEmMZmWDU-1L-50" value="" style="verticalLabelPosition=bottom;html=1;verticalAlign=top;align=center;shape=mxgraph.floorplan.wall;rotation=0;" parent="1" vertex="1">
                    <mxGeometry x="730.51" y="989" width="17" height="10" as="geometry"/>
                </mxCell>
                <mxCell id="1sYgjcY_VEmMZmWDU-1L-52" value="" style="verticalLabelPosition=bottom;html=1;verticalAlign=top;align=center;shape=mxgraph.floorplan.wall;direction=south;rotation=0;" parent="1" vertex="1">
                    <mxGeometry x="890.51" y="1110" width="10" height="170" as="geometry"/>
                </mxCell>
                <mxCell id="1sYgjcY_VEmMZmWDU-1L-53" value="" style="verticalLabelPosition=bottom;html=1;verticalAlign=top;align=center;shape=mxgraph.floorplan.wall;rotation=0;" parent="1" vertex="1">
                    <mxGeometry x="470.51" y="1170" width="140" height="10" as="geometry"/>
                </mxCell>
                <mxCell id="1sYgjcY_VEmMZmWDU-1L-55" value="" style="verticalLabelPosition=bottom;html=1;verticalAlign=top;align=center;shape=mxgraph.floorplan.wall;rotation=0;" parent="1" vertex="1">
                    <mxGeometry x="80.50999999999999" y="330" width="90" height="10" as="geometry"/>
                </mxCell>
                <mxCell id="1sYgjcY_VEmMZmWDU-1L-56" value="" style="verticalLabelPosition=bottom;html=1;verticalAlign=top;align=center;shape=mxgraph.floorplan.wall;rotation=0;" parent="1" vertex="1">
                    <mxGeometry x="460.51" y="480" width="240" height="10" as="geometry"/>
                </mxCell>
                <mxCell id="1sYgjcY_VEmMZmWDU-1L-57" value="" style="verticalLabelPosition=bottom;html=1;verticalAlign=top;align=center;shape=mxgraph.floorplan.wall;direction=south;rotation=0;" parent="1" vertex="1">
                    <mxGeometry x="360.51" y="720" width="10" height="10" as="geometry"/>
                </mxCell>
                <mxCell id="1sYgjcY_VEmMZmWDU-1L-59" value="" style="verticalLabelPosition=bottom;html=1;verticalAlign=top;align=center;shape=mxgraph.floorplan.wall;rotation=0;" parent="1" vertex="1">
                    <mxGeometry x="600.51" y="980" width="10" height="10" as="geometry"/>
                </mxCell>
                <mxCell id="1sYgjcY_VEmMZmWDU-1L-60" value="" style="verticalLabelPosition=bottom;html=1;verticalAlign=top;align=center;shape=mxgraph.floorplan.wall;rotation=0;" parent="1" vertex="1">
                    <mxGeometry x="870.51" y="330" width="10" height="10" as="geometry"/>
                </mxCell>
                <mxCell id="1sYgjcY_VEmMZmWDU-1L-61" value="" style="verticalLabelPosition=bottom;html=1;verticalAlign=top;align=center;shape=mxgraph.floorplan.wall;rotation=0;" parent="1" vertex="1">
                    <mxGeometry x="460.51" y="330" width="30" height="10" as="geometry"/>
                </mxCell>
                <mxCell id="1sYgjcY_VEmMZmWDU-1L-62" value="" style="verticalLabelPosition=bottom;html=1;verticalAlign=top;align=center;shape=mxgraph.floorplan.wall;rotation=0;" parent="1" vertex="1">
                    <mxGeometry x="540.51" y="330" width="60" height="10" as="geometry"/>
                </mxCell>
                <mxCell id="1sYgjcY_VEmMZmWDU-1L-63" value="" style="verticalLabelPosition=bottom;html=1;verticalAlign=top;align=center;shape=mxgraph.floorplan.wall;direction=south;rotation=0;" parent="1" vertex="1">
                    <mxGeometry x="950.45" y="1000" width="10" height="550" as="geometry"/>
                </mxCell>
                <mxCell id="1sYgjcY_VEmMZmWDU-1L-73" value="" style="verticalLabelPosition=bottom;html=1;verticalAlign=top;align=center;shape=mxgraph.floorplan.wall;rotation=0;" parent="1" vertex="1">
                    <mxGeometry x="1030.51" y="50" width="890" height="10" as="geometry"/>
                </mxCell>
                <mxCell id="1sYgjcY_VEmMZmWDU-1L-74" value="" style="verticalLabelPosition=bottom;html=1;verticalAlign=top;align=center;shape=mxgraph.floorplan.wall;direction=south;rotation=0;" parent="1" vertex="1">
                    <mxGeometry x="1220.51" y="60" width="10" height="195" as="geometry"/>
                </mxCell>
                <mxCell id="1sYgjcY_VEmMZmWDU-1L-75" value="" style="verticalLabelPosition=bottom;html=1;verticalAlign=top;align=center;shape=mxgraph.floorplan.wall;direction=south;rotation=0;" parent="1" vertex="1">
                    <mxGeometry x="1389.51" y="60" width="10" height="100" as="geometry"/>
                </mxCell>
                <mxCell id="1sYgjcY_VEmMZmWDU-1L-77" value="" style="verticalLabelPosition=bottom;html=1;verticalAlign=top;align=center;shape=mxgraph.floorplan.wall;rotation=0;" parent="1" vertex="1">
                    <mxGeometry x="1279.51" y="245" width="70" height="10" as="geometry"/>
                </mxCell>
                <mxCell id="1sYgjcY_VEmMZmWDU-1L-78" value="" style="verticalLabelPosition=bottom;html=1;verticalAlign=top;align=center;shape=mxgraph.floorplan.wall;rotation=0;" parent="1" vertex="1">
                    <mxGeometry x="1039.51" y="245" width="130" height="10" as="geometry"/>
                </mxCell>
                <mxCell id="1sYgjcY_VEmMZmWDU-1L-79" value="" style="verticalLabelPosition=bottom;html=1;verticalAlign=top;align=center;shape=mxgraph.floorplan.wall;direction=south;rotation=0;" parent="1" vertex="1">
                    <mxGeometry x="1560.51" y="60" width="10" height="195" as="geometry"/>
                </mxCell>
                <mxCell id="1sYgjcY_VEmMZmWDU-1L-80" value="" style="verticalLabelPosition=bottom;html=1;verticalAlign=top;align=center;shape=mxgraph.floorplan.wall;direction=south;rotation=0;" parent="1" vertex="1">
                    <mxGeometry x="1729.51" y="60" width="10" height="100" as="geometry"/>
                </mxCell>
                <mxCell id="1sYgjcY_VEmMZmWDU-1L-82" value="" style="verticalLabelPosition=bottom;html=1;verticalAlign=top;align=center;shape=mxgraph.floorplan.wall;rotation=0;" parent="1" vertex="1">
                    <mxGeometry x="1619.51" y="245" width="70" height="10" as="geometry"/>
                </mxCell>
                <mxCell id="1sYgjcY_VEmMZmWDU-1L-83" value="" style="verticalLabelPosition=bottom;html=1;verticalAlign=top;align=center;shape=mxgraph.floorplan.wall;rotation=0;" parent="1" vertex="1">
                    <mxGeometry x="1399.51" y="245" width="110" height="10" as="geometry"/>
                </mxCell>
                <mxCell id="1sYgjcY_VEmMZmWDU-1L-85" value="" style="verticalLabelPosition=bottom;html=1;verticalAlign=top;align=center;shape=mxgraph.floorplan.wall;rotation=0;" parent="1" vertex="1">
                    <mxGeometry x="1789.51" y="245" width="130.49" height="10" as="geometry"/>
                </mxCell>
                <mxCell id="1sYgjcY_VEmMZmWDU-1L-86" value="" style="verticalLabelPosition=bottom;html=1;verticalAlign=top;align=center;shape=mxgraph.floorplan.wall;rotation=0;connectable=0;allowArrows=0;recursiveResize=0;expand=0;" parent="1" vertex="1">
                    <mxGeometry x="1040.51" y="1540" width="880" height="10" as="geometry"/>
                </mxCell>
                <mxCell id="1sYgjcY_VEmMZmWDU-1L-87" value="" style="verticalLabelPosition=bottom;html=1;verticalAlign=top;align=center;shape=mxgraph.floorplan.wall;rotation=0;" parent="1" vertex="1">
                    <mxGeometry x="1030.51" y="1370" width="80" height="10" as="geometry"/>
                </mxCell>
                <mxCell id="1sYgjcY_VEmMZmWDU-1L-88" value="" style="verticalLabelPosition=bottom;html=1;verticalAlign=top;align=center;shape=mxgraph.floorplan.wall;rotation=0;" parent="1" vertex="1">
                    <mxGeometry x="1220.51" y="1370" width="80" height="10" as="geometry"/>
                </mxCell>
                <mxCell id="1sYgjcY_VEmMZmWDU-1L-93" value="" style="verticalLabelPosition=bottom;html=1;verticalAlign=top;align=center;shape=mxgraph.floorplan.wall;rotation=0;" parent="1" vertex="1">
                    <mxGeometry x="1410.51" y="1370" width="120" height="10" as="geometry"/>
                </mxCell>
                <mxCell id="1sYgjcY_VEmMZmWDU-1L-94" value="" style="verticalLabelPosition=bottom;html=1;verticalAlign=top;align=center;shape=mxgraph.floorplan.wall;rotation=0;" parent="1" vertex="1">
                    <mxGeometry x="1590.51" y="1370" width="50" height="10" as="geometry"/>
                </mxCell>
                <mxCell id="1sYgjcY_VEmMZmWDU-1L-95" value="" style="verticalLabelPosition=bottom;html=1;verticalAlign=top;align=center;shape=mxgraph.floorplan.wall;rotation=0;" parent="1" vertex="1">
                    <mxGeometry x="1640.51" y="1370" width="90" height="10" as="geometry"/>
                </mxCell>
                <mxCell id="1sYgjcY_VEmMZmWDU-1L-96" value="" style="verticalLabelPosition=bottom;html=1;verticalAlign=top;align=center;shape=mxgraph.floorplan.wall;rotation=0;" parent="1" vertex="1">
                    <mxGeometry x="1840.51" y="1370" width="70" height="10" as="geometry"/>
                </mxCell>
                <mxCell id="1sYgjcY_VEmMZmWDU-1L-97" value="" style="verticalLabelPosition=bottom;html=1;verticalAlign=top;align=center;shape=mxgraph.floorplan.wall;rotation=0;" parent="1" vertex="1">
                    <mxGeometry x="1300.51" y="1370" width="60" height="10" as="geometry"/>
                </mxCell>
                <mxCell id="1sYgjcY_VEmMZmWDU-1L-98" value="" style="verticalLabelPosition=bottom;html=1;verticalAlign=top;align=center;shape=mxgraph.floorplan.wall;direction=south;rotation=0;" parent="1" vertex="1">
                    <mxGeometry x="1280.51" y="1370" width="10" height="170" as="geometry"/>
                </mxCell>
                <mxCell id="1sYgjcY_VEmMZmWDU-1L-99" value="" style="verticalLabelPosition=bottom;html=1;verticalAlign=top;align=center;shape=mxgraph.floorplan.wall;direction=south;rotation=0;" parent="1" vertex="1">
                    <mxGeometry x="1520.51" y="1370" width="10" height="170" as="geometry"/>
                </mxCell>
                <mxCell id="1sYgjcY_VEmMZmWDU-1L-100" value="" style="verticalLabelPosition=bottom;html=1;verticalAlign=top;align=center;shape=mxgraph.floorplan.wall;direction=south;rotation=0;" parent="1" vertex="1">
                    <mxGeometry x="1650.51" y="1370" width="10" height="170" as="geometry"/>
                </mxCell>
                <mxCell id="1sYgjcY_VEmMZmWDU-1L-101" value="" style="verticalLabelPosition=bottom;html=1;verticalAlign=top;align=center;shape=mxgraph.floorplan.wall;direction=south;rotation=0;" parent="1" vertex="1">
                    <mxGeometry x="1780.51" y="1370" width="10" height="170" as="geometry"/>
                </mxCell>
                <mxCell id="1sYgjcY_VEmMZmWDU-1L-103" value="" style="verticalLabelPosition=bottom;html=1;verticalAlign=top;align=center;shape=mxgraph.floorplan.wall;rotation=0;" parent="1" vertex="1">
                    <mxGeometry x="1140.51" y="330" width="49.49" height="10" as="geometry"/>
                </mxCell>
                <mxCell id="1sYgjcY_VEmMZmWDU-1L-104" value="" style="verticalLabelPosition=bottom;html=1;verticalAlign=top;align=center;shape=mxgraph.floorplan.wall;rotation=0;" parent="1" vertex="1">
                    <mxGeometry x="1039.51" y="590" width="110" height="10" as="geometry"/>
                </mxCell>
                <mxCell id="1sYgjcY_VEmMZmWDU-1L-105" value="" style="verticalLabelPosition=bottom;html=1;verticalAlign=top;align=center;shape=mxgraph.floorplan.wall;direction=south;rotation=0;" parent="1" vertex="1">
                    <mxGeometry x="1183.51" y="330" width="10" height="170" as="geometry"/>
                </mxCell>
                <mxCell id="1sYgjcY_VEmMZmWDU-1L-113" value="" style="verticalLabelPosition=bottom;html=1;verticalAlign=top;align=center;shape=mxgraph.floorplan.wall;direction=south;rotation=0;" parent="1" vertex="1">
                    <mxGeometry x="1550.51" y="330" width="10" height="310" as="geometry"/>
                </mxCell>
                <mxCell id="1sYgjcY_VEmMZmWDU-1L-114" value="" style="verticalLabelPosition=bottom;html=1;verticalAlign=top;align=center;shape=mxgraph.floorplan.wall;direction=south;rotation=0;" parent="1" vertex="1">
                    <mxGeometry x="1850.51" y="330" width="10" height="250" as="geometry"/>
                </mxCell>
                <mxCell id="1sYgjcY_VEmMZmWDU-1L-117" value="" style="verticalLabelPosition=bottom;html=1;verticalAlign=top;align=center;shape=mxgraph.floorplan.wall;rotation=0;" parent="1" vertex="1">
                    <mxGeometry x="1510.51" y="630" width="280" height="10" as="geometry"/>
                </mxCell>
                <mxCell id="1sYgjcY_VEmMZmWDU-1L-118" value="" style="verticalLabelPosition=bottom;html=1;verticalAlign=top;align=center;shape=mxgraph.floorplan.wall;direction=south;rotation=0;" parent="1" vertex="1">
                    <mxGeometry x="1420.51" y="480" width="10" height="160" as="geometry"/>
                </mxCell>
                <mxCell id="1sYgjcY_VEmMZmWDU-1L-120" value="" style="verticalLabelPosition=bottom;html=1;verticalAlign=top;align=center;shape=mxgraph.floorplan.wall;direction=south;rotation=0;" parent="1" vertex="1">
                    <mxGeometry x="1319.51" y="410" width="10" height="200" as="geometry"/>
                </mxCell>
                <mxCell id="1sYgjcY_VEmMZmWDU-1L-121" value="" style="verticalLabelPosition=bottom;html=1;verticalAlign=top;align=center;shape=mxgraph.floorplan.wall;rotation=0;" parent="1" vertex="1">
                    <mxGeometry x="1570.51" y="330" width="200" height="10" as="geometry"/>
                </mxCell>
                <mxCell id="1sYgjcY_VEmMZmWDU-1L-122" value="" style="verticalLabelPosition=bottom;html=1;verticalAlign=top;align=center;shape=mxgraph.floorplan.wall;direction=south;rotation=0;" parent="1" vertex="1">
                    <mxGeometry x="1420.51" y="330" width="10" height="160" as="geometry"/>
                </mxCell>
                <mxCell id="1sYgjcY_VEmMZmWDU-1L-123" value="" style="verticalLabelPosition=bottom;html=1;verticalAlign=top;align=center;shape=mxgraph.floorplan.wall;rotation=0;" parent="1" vertex="1">
                    <mxGeometry x="1039.51" y="730" width="290" height="10" as="geometry"/>
                </mxCell>
                <mxCell id="1sYgjcY_VEmMZmWDU-1L-124" value="" style="verticalLabelPosition=bottom;html=1;verticalAlign=top;align=center;shape=mxgraph.floorplan.wall;direction=south;rotation=0;" parent="1" vertex="1">
                    <mxGeometry x="1320.51" y="980" width="10" height="80" as="geometry"/>
                </mxCell>
                <mxCell id="1sYgjcY_VEmMZmWDU-1L-125" value="" style="verticalLabelPosition=bottom;html=1;verticalAlign=top;align=center;shape=mxgraph.floorplan.wall;rotation=0;" parent="1" vertex="1">
                    <mxGeometry x="1230.51" y="1280" width="90" height="10" as="geometry"/>
                </mxCell>
                <mxCell id="1sYgjcY_VEmMZmWDU-1L-126" value="" style="verticalLabelPosition=bottom;html=1;verticalAlign=top;align=center;shape=mxgraph.floorplan.wall;direction=south;rotation=0;" parent="1" vertex="1">
                    <mxGeometry x="1320.51" y="1055" width="10" height="235" as="geometry"/>
                </mxCell>
                <mxCell id="1sYgjcY_VEmMZmWDU-1L-127" value="" style="verticalLabelPosition=bottom;html=1;verticalAlign=top;align=center;shape=mxgraph.floorplan.wall;rotation=0;" parent="1" vertex="1">
                    <mxGeometry x="1040.51" y="1280" width="100" height="10" as="geometry"/>
                </mxCell>
                <mxCell id="1sYgjcY_VEmMZmWDU-1L-129" value="" style="verticalLabelPosition=bottom;html=1;verticalAlign=top;align=center;shape=mxgraph.floorplan.wall;rotation=0;" parent="1" vertex="1">
                    <mxGeometry x="1039.51" y="330" width="51" height="10" as="geometry"/>
                </mxCell>
                <mxCell id="1sYgjcY_VEmMZmWDU-1L-130" value="" style="verticalLabelPosition=bottom;html=1;verticalAlign=top;align=center;shape=mxgraph.floorplan.wall;rotation=0;" parent="1" vertex="1">
                    <mxGeometry x="1420.51" y="480" width="130" height="10" as="geometry"/>
                </mxCell>
                <mxCell id="1sYgjcY_VEmMZmWDU-1L-131" value="" style="verticalLabelPosition=bottom;html=1;verticalAlign=top;align=center;shape=mxgraph.floorplan.wall;direction=south;rotation=0;" parent="1" vertex="1">
                    <mxGeometry x="1319.51" y="720" width="10" height="10" as="geometry"/>
                </mxCell>
                <mxCell id="1sYgjcY_VEmMZmWDU-1L-135" value="" style="verticalLabelPosition=bottom;html=1;verticalAlign=top;align=center;shape=mxgraph.floorplan.wall;rotation=0;" parent="1" vertex="1">
                    <mxGeometry x="1180" y="330" width="140.51" height="10" as="geometry"/>
                </mxCell>
                <mxCell id="1sYgjcY_VEmMZmWDU-1L-136" value="" style="verticalLabelPosition=bottom;html=1;verticalAlign=top;align=center;shape=mxgraph.floorplan.wall;rotation=0;" parent="1" vertex="1">
                    <mxGeometry x="1820.51" y="330" width="40" height="10" as="geometry"/>
                </mxCell>
                <mxCell id="1sYgjcY_VEmMZmWDU-1L-137" value="" style="verticalLabelPosition=bottom;html=1;verticalAlign=top;align=center;shape=mxgraph.floorplan.wall;rotation=0;" parent="1" vertex="1">
                    <mxGeometry x="1420.51" y="330" width="30" height="10" as="geometry"/>
                </mxCell>
                <mxCell id="1sYgjcY_VEmMZmWDU-1L-138" value="" style="verticalLabelPosition=bottom;html=1;verticalAlign=top;align=center;shape=mxgraph.floorplan.wall;rotation=0;" parent="1" vertex="1">
                    <mxGeometry x="1500.51" y="330" width="70" height="10" as="geometry"/>
                </mxCell>
                <mxCell id="1sYgjcY_VEmMZmWDU-1L-150" value="" style="verticalLabelPosition=bottom;html=1;verticalAlign=top;align=center;shape=mxgraph.floorplan.wall;rotation=-180;direction=east;" parent="1" vertex="1">
                    <mxGeometry x="169.48" y="1540" width="786.36" height="10" as="geometry"/>
                </mxCell>
                <mxCell id="1sYgjcY_VEmMZmWDU-1L-152" value="" style="verticalLabelPosition=bottom;html=1;verticalAlign=top;align=center;shape=mxgraph.floorplan.wall;direction=south;rotation=-180;" parent="1" vertex="1">
                    <mxGeometry x="758.48" y="1375" width="10" height="165" as="geometry"/>
                </mxCell>
                <mxCell id="1sYgjcY_VEmMZmWDU-1L-153" value="" style="verticalLabelPosition=bottom;html=1;verticalAlign=top;align=center;shape=mxgraph.floorplan.wall;direction=south;rotation=-180;" parent="1" vertex="1">
                    <mxGeometry x="589.48" y="1380" width="10" height="160" as="geometry"/>
                </mxCell>
                <mxCell id="1sYgjcY_VEmMZmWDU-1L-154" value="" style="verticalLabelPosition=bottom;html=1;verticalAlign=top;align=center;shape=mxgraph.floorplan.wall;rotation=-180;direction=east;" parent="1" vertex="1">
                    <mxGeometry x="640.51" y="1370" width="60" height="10" as="geometry"/>
                </mxCell>
                <mxCell id="1sYgjcY_VEmMZmWDU-1L-155" value="" style="verticalLabelPosition=bottom;html=1;verticalAlign=top;align=center;shape=mxgraph.floorplan.wall;rotation=-180;direction=east;" parent="1" vertex="1">
                    <mxGeometry x="830.51" y="1370" width="120" height="10" as="geometry"/>
                </mxCell>
                <mxCell id="1sYgjcY_VEmMZmWDU-1L-156" value="" style="verticalLabelPosition=bottom;html=1;verticalAlign=top;align=center;shape=mxgraph.floorplan.wall;direction=south;rotation=-180;" parent="1" vertex="1">
                    <mxGeometry x="418.48" y="1375" width="10" height="165" as="geometry"/>
                </mxCell>
                <mxCell id="1sYgjcY_VEmMZmWDU-1L-157" value="" style="verticalLabelPosition=bottom;html=1;verticalAlign=top;align=center;shape=mxgraph.floorplan.wall;direction=south;rotation=-180;" parent="1" vertex="1">
                    <mxGeometry x="249.48000000000002" y="1380" width="10" height="160" as="geometry"/>
                </mxCell>
                <mxCell id="1sYgjcY_VEmMZmWDU-1L-158" value="" style="verticalLabelPosition=bottom;html=1;verticalAlign=top;align=center;shape=mxgraph.floorplan.wall;rotation=-180;direction=east;" parent="1" vertex="1">
                    <mxGeometry x="240.51" y="1370" width="120" height="10" as="geometry"/>
                </mxCell>
                <mxCell id="1sYgjcY_VEmMZmWDU-1L-159" value="" style="verticalLabelPosition=bottom;html=1;verticalAlign=top;align=center;shape=mxgraph.floorplan.wall;rotation=-180;direction=east;" parent="1" vertex="1">
                    <mxGeometry x="490.51" y="1370" width="150" height="10" as="geometry"/>
                </mxCell>
                <mxCell id="1sYgjcY_VEmMZmWDU-1L-160" value="" style="verticalLabelPosition=bottom;html=1;verticalAlign=top;align=center;shape=mxgraph.floorplan.wall;rotation=-180;direction=east;" parent="1" vertex="1">
                    <mxGeometry x="80.50999999999999" y="1370" width="110" height="10" as="geometry"/>
                </mxCell>
                <mxCell id="1sYgjcY_VEmMZmWDU-1L-175" value="" style="verticalLabelPosition=bottom;html=1;verticalAlign=top;align=center;shape=mxgraph.floorplan.wall;rotation=0;" parent="1" vertex="1">
                    <mxGeometry x="810.51" y="1280" width="90" height="10" as="geometry"/>
                </mxCell>
                <mxCell id="1sYgjcY_VEmMZmWDU-1L-177" value="" style="verticalLabelPosition=bottom;html=1;verticalAlign=top;align=center;shape=mxgraph.floorplan.wall;rotation=-180;direction=east;" parent="1" vertex="1">
                    <mxGeometry x="412.51" y="1370" width="24" height="10" as="geometry"/>
                </mxCell>
                <mxCell id="1sYgjcY_VEmMZmWDU-1L-178" value="" style="verticalLabelPosition=bottom;html=1;verticalAlign=top;align=center;shape=mxgraph.floorplan.wall;rotation=-180;direction=east;" parent="1" vertex="1">
                    <mxGeometry x="751.48" y="1370" width="24" height="10" as="geometry"/>
                </mxCell>
                <mxCell id="1sYgjcY_VEmMZmWDU-1L-186" value="" style="verticalLabelPosition=bottom;html=1;verticalAlign=top;align=center;shape=mxgraph.floorplan.wall;direction=south;rotation=0;" parent="1" vertex="1">
                    <mxGeometry x="890.51" y="1010" width="10" height="100" as="geometry"/>
                </mxCell>
                <mxCell id="1sYgjcY_VEmMZmWDU-1L-187" value="" style="verticalLabelPosition=bottom;html=1;verticalAlign=top;align=center;shape=mxgraph.floorplan.wall;direction=south;rotation=0;" parent="1" vertex="1">
                    <mxGeometry x="1030.51" y="1020" width="10" height="530" as="geometry"/>
                </mxCell>
                <mxCell id="1sYgjcY_VEmMZmWDU-1L-188" value="" style="verticalLabelPosition=bottom;html=1;verticalAlign=top;align=center;shape=mxgraph.floorplan.wall;direction=south;rotation=0;" parent="1" vertex="1">
                    <mxGeometry x="229.51" y="980" width="10" height="40" as="geometry"/>
                </mxCell>
                <mxCell id="1sYgjcY_VEmMZmWDU-1L-189" value="" style="verticalLabelPosition=bottom;html=1;verticalAlign=top;align=center;shape=mxgraph.floorplan.wall;direction=south;rotation=0;" parent="1" vertex="1">
                    <mxGeometry x="360.51" y="980" width="10" height="20" as="geometry"/>
                </mxCell>
                <mxCell id="1sYgjcY_VEmMZmWDU-1L-190" value="" style="verticalLabelPosition=bottom;html=1;verticalAlign=top;align=center;shape=mxgraph.floorplan.wall;direction=south;rotation=0;" parent="1" vertex="1">
                    <mxGeometry x="460.51" y="1010" width="10" height="200" as="geometry"/>
                </mxCell>
                <mxCell id="1sYgjcY_VEmMZmWDU-1L-191" value="" style="verticalLabelPosition=bottom;html=1;verticalAlign=top;align=center;shape=mxgraph.floorplan.wall;direction=south;rotation=0;" parent="1" vertex="1">
                    <mxGeometry x="600.51" y="980" width="10" height="20" as="geometry"/>
                </mxCell>
                <mxCell id="1sYgjcY_VEmMZmWDU-1L-192" value="" style="verticalLabelPosition=bottom;html=1;verticalAlign=top;align=center;shape=mxgraph.floorplan.wall;direction=south;rotation=0;" parent="1" vertex="1">
                    <mxGeometry x="890.51" y="990" width="10" height="20" as="geometry"/>
                </mxCell>
                <mxCell id="1sYgjcY_VEmMZmWDU-1L-193" value="" style="verticalLabelPosition=bottom;html=1;verticalAlign=top;align=center;shape=mxgraph.floorplan.wall;direction=south;rotation=0;" parent="1" vertex="1">
                    <mxGeometry x="950.45" y="880" width="10" height="130" as="geometry"/>
                </mxCell>
                <mxCell id="1sYgjcY_VEmMZmWDU-1L-194" value="" style="verticalLabelPosition=bottom;html=1;verticalAlign=top;align=center;shape=mxgraph.floorplan.wall;direction=south;rotation=0;" parent="1" vertex="1">
                    <mxGeometry x="1030.51" y="50" width="10" height="970" as="geometry"/>
                </mxCell>
                <mxCell id="1sYgjcY_VEmMZmWDU-1L-195" value="" style="verticalLabelPosition=bottom;html=1;verticalAlign=top;align=center;shape=mxgraph.floorplan.wall;rotation=0;" parent="1" vertex="1">
                    <mxGeometry x="1040.51" y="980" width="280" height="10" as="geometry"/>
                </mxCell>
                <mxCell id="1sYgjcY_VEmMZmWDU-1L-196" value="" style="verticalLabelPosition=bottom;html=1;verticalAlign=top;align=center;shape=mxgraph.floorplan.wall;direction=south;rotation=0;" parent="1" vertex="1">
                    <mxGeometry x="1320.51" y="980" width="10" height="20" as="geometry"/>
                </mxCell>
                <mxCell id="1sYgjcY_VEmMZmWDU-1L-197" value="" style="verticalLabelPosition=bottom;html=1;verticalAlign=top;align=center;shape=mxgraph.floorplan.wall;direction=south;rotation=0;" parent="1" vertex="1">
                    <mxGeometry x="1910.45" y="50" width="10" height="960" as="geometry"/>
                </mxCell>
                <mxCell id="1sYgjcY_VEmMZmWDU-1L-198" value="" style="verticalLabelPosition=bottom;html=1;verticalAlign=top;align=center;shape=mxgraph.floorplan.wall;direction=south;rotation=0;" parent="1" vertex="1">
                    <mxGeometry x="1910.51" y="1010" width="10" height="540" as="geometry"/>
                </mxCell>
                <mxCell id="1sYgjcY_VEmMZmWDU-1L-210" value="" style="verticalLabelPosition=bottom;html=1;verticalAlign=top;align=center;shape=mxgraph.floorplan.wall;direction=south;rotation=0;" parent="1" vertex="1">
                    <mxGeometry x="1319.51" y="330" width="10" height="30" as="geometry"/>
                </mxCell>
                <mxCell id="1sYgjcY_VEmMZmWDU-1L-220" value="" style="verticalLabelPosition=bottom;html=1;verticalAlign=top;align=center;shape=mxgraph.floorplan.wall;direction=south;rotation=0;" parent="1" vertex="1">
                    <mxGeometry x="590.51" y="530" width="10" height="110" as="geometry"/>
                </mxCell>
                <mxCell id="1sYgjcY_VEmMZmWDU-1L-221" value="" style="verticalLabelPosition=bottom;html=1;verticalAlign=top;align=center;shape=mxgraph.floorplan.wall;rotation=0;" parent="1" vertex="1">
                    <mxGeometry x="1420.51" y="630" width="40" height="10" as="geometry"/>
                </mxCell>
                <mxCell id="1sYgjcY_VEmMZmWDU-1L-222" value="" style="verticalLabelPosition=bottom;html=1;verticalAlign=top;align=center;shape=mxgraph.floorplan.wall;rotation=0;" parent="1" vertex="1">
                    <mxGeometry x="1040.51" y="730" width="290" height="10" as="geometry"/>
                </mxCell>
                <mxCell id="1sYgjcY_VEmMZmWDU-1L-223" value="" style="verticalLabelPosition=bottom;html=1;verticalAlign=top;align=center;shape=mxgraph.floorplan.wall;rotation=0;" parent="1" vertex="1">
                    <mxGeometry x="1040.51" y="980" width="280" height="10" as="geometry"/>
                </mxCell>
                <mxCell id="1sYgjcY_VEmMZmWDU-1L-224" value="" style="verticalLabelPosition=bottom;html=1;verticalAlign=top;align=center;shape=mxgraph.floorplan.wall;direction=south;rotation=0;" parent="1" vertex="1">
                    <mxGeometry x="1320.51" y="720" width="10" height="10" as="geometry"/>
                </mxCell>
                <mxCell id="1sYgjcY_VEmMZmWDU-1L-247" value="" style="verticalLabelPosition=bottom;html=1;verticalAlign=top;align=center;shape=mxgraph.floorplan.wall;rotation=-90;" parent="1" vertex="1">
                    <mxGeometry x="720.51" y="1010" width="30" height="10" as="geometry"/>
                </mxCell>
                <mxCell id="1sYgjcY_VEmMZmWDU-1L-250" value="" style="verticalLabelPosition=bottom;html=1;verticalAlign=top;align=center;shape=mxgraph.floorplan.wall;rotation=0;" parent="1" vertex="1">
                    <mxGeometry x="880.51" y="989" width="19.94" height="10" as="geometry"/>
                </mxCell>
                <mxCell id="1sYgjcY_VEmMZmWDU-1L-251" value="" style="verticalLabelPosition=bottom;html=1;verticalAlign=top;align=center;shape=mxgraph.floorplan.wall;rotation=0;" parent="1" vertex="1">
                    <mxGeometry x="800.51" y="989" width="80" height="10" as="geometry"/>
                </mxCell>
                <mxCell id="1sYgjcY_VEmMZmWDU-1L-254" value="" style="verticalLabelPosition=bottom;html=1;verticalAlign=top;align=center;shape=mxgraph.floorplan.wall;direction=south;rotation=0;" parent="1" vertex="1">
                    <mxGeometry x="730.51" y="1020" width="10" height="100" as="geometry"/>
                </mxCell>
                <mxCell id="1sYgjcY_VEmMZmWDU-1L-258" value="" style="verticalLabelPosition=bottom;html=1;verticalAlign=top;align=center;shape=mxgraph.floorplan.wall;rotation=0;" parent="1" vertex="1">
                    <mxGeometry x="1030.51" y="860" width="160" height="10" as="geometry"/>
                </mxCell>
                <mxCell id="1sYgjcY_VEmMZmWDU-1L-260" value="" style="verticalLabelPosition=bottom;html=1;verticalAlign=top;align=center;shape=mxgraph.floorplan.wall;direction=south;rotation=0;" parent="1" vertex="1">
                    <mxGeometry x="1560.51" y="1000" width="10" height="290" as="geometry"/>
                </mxCell>
                <mxCell id="1sYgjcY_VEmMZmWDU-1L-262" value="" style="verticalLabelPosition=bottom;html=1;verticalAlign=top;align=center;shape=mxgraph.floorplan.wall;rotation=0;" parent="1" vertex="1">
                    <mxGeometry x="1630.51" y="1280" width="40" height="10" as="geometry"/>
                </mxCell>
                <mxCell id="1sYgjcY_VEmMZmWDU-1L-263" value="" style="verticalLabelPosition=bottom;html=1;verticalAlign=top;align=center;shape=mxgraph.floorplan.wall;direction=south;rotation=0;" parent="1" vertex="1">
                    <mxGeometry x="1850.51" y="1110" width="10" height="40" as="geometry"/>
                </mxCell>
                <mxCell id="1sYgjcY_VEmMZmWDU-1L-264" value="" style="verticalLabelPosition=bottom;html=1;verticalAlign=top;align=center;shape=mxgraph.floorplan.wall;rotation=0;" parent="1" vertex="1">
                    <mxGeometry x="1666.51" y="1280" width="184" height="10" as="geometry"/>
                </mxCell>
                <mxCell id="1sYgjcY_VEmMZmWDU-1L-265" value="" style="verticalLabelPosition=bottom;html=1;verticalAlign=top;align=center;shape=mxgraph.floorplan.wall;direction=south;rotation=0;" parent="1" vertex="1">
                    <mxGeometry x="1850.51" y="1150" width="10" height="140" as="geometry"/>
                </mxCell>
                <mxCell id="1sYgjcY_VEmMZmWDU-1L-269" value="" style="verticalLabelPosition=bottom;html=1;verticalAlign=top;align=center;shape=mxgraph.floorplan.wall;direction=south;rotation=0;" parent="1" vertex="1">
                    <mxGeometry x="1850.51" y="1010" width="10" height="100" as="geometry"/>
                </mxCell>
                <mxCell id="1sYgjcY_VEmMZmWDU-1L-270" value="" style="verticalLabelPosition=bottom;html=1;verticalAlign=top;align=center;shape=mxgraph.floorplan.wall;direction=south;rotation=0;" parent="1" vertex="1">
                    <mxGeometry x="1420.51" y="1010" width="10" height="280" as="geometry"/>
                </mxCell>
                <mxCell id="1sYgjcY_VEmMZmWDU-1L-271" value="" style="verticalLabelPosition=bottom;html=1;verticalAlign=top;align=center;shape=mxgraph.floorplan.wall;direction=south;rotation=0;" parent="1" vertex="1">
                    <mxGeometry x="1850.51" y="990" width="10" height="20" as="geometry"/>
                </mxCell>
                <mxCell id="1sYgjcY_VEmMZmWDU-1L-272" value="" style="verticalLabelPosition=bottom;html=1;verticalAlign=top;align=center;shape=mxgraph.floorplan.wall;rotation=0;" parent="1" vertex="1">
                    <mxGeometry x="1840.51" y="989" width="19.94" height="10" as="geometry"/>
                </mxCell>
                <mxCell id="1sYgjcY_VEmMZmWDU-1L-273" value="" style="verticalLabelPosition=bottom;html=1;verticalAlign=top;align=center;shape=mxgraph.floorplan.wall;direction=south;rotation=0;" parent="1" vertex="1">
                    <mxGeometry x="1770.51" y="1000" width="10" height="120" as="geometry"/>
                </mxCell>
                <mxCell id="1sYgjcY_VEmMZmWDU-1L-277" value="" style="verticalLabelPosition=bottom;html=1;verticalAlign=top;align=center;shape=mxgraph.floorplan.wall;rotation=0;" parent="1" vertex="1">
                    <mxGeometry x="739.76" y="1109.5" width="150" height="10" as="geometry"/>
                </mxCell>
                <mxCell id="1sYgjcY_VEmMZmWDU-1L-278" value="" style="verticalLabelPosition=bottom;html=1;verticalAlign=top;align=center;shape=mxgraph.floorplan.wall;rotation=0;" parent="1" vertex="1">
                    <mxGeometry x="560.51" y="1280" width="250" height="10" as="geometry"/>
                </mxCell>
                <mxCell id="1sYgjcY_VEmMZmWDU-1L-279" value="" style="verticalLabelPosition=bottom;html=1;verticalAlign=top;align=center;shape=mxgraph.floorplan.wall;direction=south;rotation=0;" parent="1" vertex="1">
                    <mxGeometry x="600.51" y="1010" width="10" height="210" as="geometry"/>
                </mxCell>
                <mxCell id="1sYgjcY_VEmMZmWDU-1L-280" value="" style="verticalLabelPosition=bottom;html=1;verticalAlign=top;align=center;shape=mxgraph.floorplan.wall;rotation=0;" parent="1" vertex="1">
                    <mxGeometry x="460.72" y="1280" width="109.79" height="10" as="geometry"/>
                </mxCell>
                <mxCell id="1sYgjcY_VEmMZmWDU-1L-282" value="" style="verticalLabelPosition=bottom;html=1;verticalAlign=top;align=center;shape=mxgraph.floorplan.wall;direction=south;rotation=0;" parent="1" vertex="1">
                    <mxGeometry x="1420.51" y="980" width="10" height="30" as="geometry"/>
                </mxCell>
                <mxCell id="1sYgjcY_VEmMZmWDU-1L-283" value="" style="verticalLabelPosition=bottom;html=1;verticalAlign=top;align=center;shape=mxgraph.floorplan.wall;direction=south;rotation=0;" parent="1" vertex="1">
                    <mxGeometry x="1560.51" y="1000" width="10" height="10" as="geometry"/>
                </mxCell>
                <mxCell id="1sYgjcY_VEmMZmWDU-1L-284" value="" style="verticalLabelPosition=bottom;html=1;verticalAlign=top;align=center;shape=mxgraph.floorplan.wall;rotation=0;" parent="1" vertex="1">
                    <mxGeometry x="1570.51" y="1110" width="290" height="10" as="geometry"/>
                </mxCell>
                <mxCell id="1sYgjcY_VEmMZmWDU-1L-285" value="" style="verticalLabelPosition=bottom;html=1;verticalAlign=top;align=center;shape=mxgraph.floorplan.wall;rotation=0;" parent="1" vertex="1">
                    <mxGeometry x="1430.51" y="1170" width="140" height="10" as="geometry"/>
                </mxCell>
                <mxCell id="1sYgjcY_VEmMZmWDU-1L-287" value="" style="verticalLabelPosition=bottom;html=1;verticalAlign=top;align=center;shape=mxgraph.floorplan.wall;rotation=0;" parent="1" vertex="1">
                    <mxGeometry x="1560.51" y="980" width="10" height="10" as="geometry"/>
                </mxCell>
                <mxCell id="1sYgjcY_VEmMZmWDU-1L-289" value="" style="verticalLabelPosition=bottom;html=1;verticalAlign=top;align=center;shape=mxgraph.floorplan.wall;direction=south;rotation=0;" parent="1" vertex="1">
                    <mxGeometry x="1560.51" y="980" width="10" height="20" as="geometry"/>
                </mxCell>
                <mxCell id="1sYgjcY_VEmMZmWDU-1L-291" value="" style="verticalLabelPosition=bottom;html=1;verticalAlign=top;align=center;shape=mxgraph.floorplan.wall;rotation=-90;" parent="1" vertex="1">
                    <mxGeometry x="1640.51" y="1050" width="110" height="10" as="geometry"/>
                </mxCell>
                <mxCell id="1sYgjcY_VEmMZmWDU-1L-296" value="" style="verticalLabelPosition=bottom;html=1;verticalAlign=top;align=center;shape=mxgraph.floorplan.wall;rotation=0;" parent="1" vertex="1">
                    <mxGeometry x="1520.51" y="1280" width="60" height="10" as="geometry"/>
                </mxCell>
                <mxCell id="1sYgjcY_VEmMZmWDU-1L-297" value="" style="verticalLabelPosition=bottom;html=1;verticalAlign=top;align=center;shape=mxgraph.floorplan.wall;direction=south;rotation=0;" parent="1" vertex="1">
                    <mxGeometry x="1560.51" y="1010" width="10" height="270" as="geometry"/>
                </mxCell>
                <mxCell id="1sYgjcY_VEmMZmWDU-1L-298" value="" style="verticalLabelPosition=bottom;html=1;verticalAlign=top;align=center;shape=mxgraph.floorplan.wall;rotation=0;" parent="1" vertex="1">
                    <mxGeometry x="1420.72" y="1280" width="39.79" height="10" as="geometry"/>
                </mxCell>
                <mxCell id="1sYgjcY_VEmMZmWDU-1L-300" value="" style="verticalLabelPosition=bottom;html=1;verticalAlign=top;align=center;shape=mxgraph.floorplan.wall;rotation=0;" parent="1" vertex="1">
                    <mxGeometry x="1681.76" y="990" width="19.94" height="10" as="geometry"/>
                </mxCell>
                <mxCell id="1sYgjcY_VEmMZmWDU-1L-301" value="" style="verticalLabelPosition=bottom;html=1;verticalAlign=top;align=center;shape=mxgraph.floorplan.wall;rotation=0;" parent="1" vertex="1">
                    <mxGeometry x="1766.51" y="990" width="19.94" height="10" as="geometry"/>
                </mxCell>
                <mxCell id="1sYgjcY_VEmMZmWDU-1L-319" value="" style="verticalLabelPosition=bottom;html=1;verticalAlign=top;align=center;shape=mxgraph.floorplan.wall;direction=south;rotation=0;" parent="1" vertex="1">
                    <mxGeometry x="69.50999999999999" y="970" width="10" height="550" as="geometry"/>
                </mxCell>
                <mxCell id="1sYgjcY_VEmMZmWDU-1L-322" value="" style="verticalLabelPosition=bottom;html=1;verticalAlign=top;align=center;shape=mxgraph.floorplan.wall;rotation=-90;direction=east;" parent="1" vertex="1">
                    <mxGeometry x="355.51" y="1109.5" width="20" height="10" as="geometry"/>
                </mxCell>
                <mxCell id="1sYgjcY_VEmMZmWDU-1L-327" value="" style="verticalLabelPosition=bottom;html=1;verticalAlign=top;align=center;shape=mxgraph.floorplan.wall;direction=south;rotation=0;" parent="1" vertex="1">
                    <mxGeometry x="660.51" y="340" width="10" height="140" as="geometry"/>
                </mxCell>
                <mxCell id="1sYgjcY_VEmMZmWDU-1L-351" value="" style="verticalLabelPosition=bottom;html=1;verticalAlign=top;align=center;shape=mxgraph.floorplan.wall;rotation=0;" parent="1" vertex="1">
                    <mxGeometry x="590.51" y="245" width="30" height="10" as="geometry"/>
                </mxCell>
                <mxCell id="1sYgjcY_VEmMZmWDU-1L-375" value="" style="verticalLabelPosition=bottom;html=1;verticalAlign=top;align=center;shape=mxgraph.floorplan.wall;fontSize=16;" parent="1" vertex="1">
                    <mxGeometry x="470.51" y="570" width="80" height="10" as="geometry"/>
                </mxCell>
                <mxCell id="1sYgjcY_VEmMZmWDU-1L-376" value="" style="verticalLabelPosition=bottom;html=1;verticalAlign=top;align=center;shape=mxgraph.floorplan.wall;direction=south;rotation=0;" parent="1" vertex="1">
                    <mxGeometry x="580.51" y="569" width="10" height="10" as="geometry"/>
                </mxCell>
                <mxCell id="1sYgjcY_VEmMZmWDU-1L-377" value="" style="verticalLabelPosition=bottom;html=1;verticalAlign=top;align=center;shape=mxgraph.floorplan.wall;rotation=0;" parent="1" vertex="1">
                    <mxGeometry x="460.51" y="630" width="140" height="10" as="geometry"/>
                </mxCell>
                <object label="d1" type="robot" name="wall_e" component_Claw="[80, 1]" collision_tag="stopEvent" id="1sYgjcY_VEmMZmWDU-1L-416">
                    <mxCell style="rounded=1;whiteSpace=wrap;html=1;sketch=0;fillStyle=solid;strokeWidth=4;fontSize=23;arcSize=0;" parent="1" vertex="1">
                        <mxGeometry x="791.51" y="1460.01" width="30" height="30" as="geometry"/>
                    </mxCell>
                </object>
                <mxCell id="1sYgjcY_VEmMZmWDU-1L-417" value="" style="verticalLabelPosition=bottom;html=1;verticalAlign=top;align=center;shape=mxgraph.floorplan.wall;rotation=0;" parent="1" vertex="1">
                    <mxGeometry x="199.51" y="245" width="30" height="10" as="geometry"/>
                </mxCell>
                <mxCell id="1sYgjcY_VEmMZmWDU-1L-420" value="" style="verticalLabelPosition=bottom;html=1;verticalAlign=top;align=center;shape=mxgraph.floorplan.wall;direction=south;rotation=0;" parent="1" vertex="1">
                    <mxGeometry x="290.51" y="60" width="10" height="195" as="geometry"/>
                </mxCell>
                <mxCell id="1sYgjcY_VEmMZmWDU-1L-421" value="" style="verticalLabelPosition=bottom;html=1;verticalAlign=top;align=center;shape=mxgraph.floorplan.wall;rotation=0;" parent="1" vertex="1">
                    <mxGeometry x="280.51" y="245" width="60" height="10" as="geometry"/>
                </mxCell>
                <mxCell id="1sYgjcY_VEmMZmWDU-1L-480" value="" style="verticalLabelPosition=bottom;html=1;verticalAlign=top;align=center;shape=mxgraph.floorplan.wall;rotation=0;" parent="1" vertex="1">
                    <mxGeometry x="80.50999999999999" y="245" width="60" height="10" as="geometry"/>
                </mxCell>
                <mxCell id="1sYgjcY_VEmMZmWDU-1L-547" value="" style="verticalLabelPosition=bottom;html=1;verticalAlign=top;align=center;shape=mxgraph.floorplan.wall;rotation=0;" parent="1" vertex="1">
                    <mxGeometry x="1470.51" y="1370" width="70" height="10" as="geometry"/>
                </mxCell>
                <mxCell id="1sYgjcY_VEmMZmWDU-1L-555" value="" style="verticalLabelPosition=bottom;html=1;verticalAlign=top;align=center;shape=mxgraph.floorplan.wall;direction=south;rotation=0;" parent="1" vertex="1">
                    <mxGeometry x="460.51" y="1270" width="10" height="20" as="geometry"/>
                </mxCell>
                <object label="" type="map-path" id="6PKThLHFwi0k3xtgdqfl-2">
                    <mxCell style="edgeStyle=orthogonalEdgeStyle;rounded=0;orthogonalLoop=1;jettySize=auto;html=1;exitX=0;exitY=0.5;exitDx=0;exitDy=0;startArrow=classic;startFill=1;strokeColor=#000000;" parent="1" edge="1">
                        <mxGeometry relative="1" as="geometry">
                            <mxPoint x="155.51" y="290.0000000000001" as="sourcePoint"/>
                            <mxPoint x="925.51" y="1330" as="targetPoint"/>
                            <Array as="points">
                                <mxPoint x="925.51" y="290"/>
                                <mxPoint x="925.51" y="590"/>
                            </Array>
                        </mxGeometry>
                    </mxCell>
                </object>
                <object label="" type="map-path" id="6PKThLHFwi0k3xtgdqfl-3">
                    <mxCell style="endArrow=classic;startArrow=classic;html=1;rounded=0;curved=1;entryX=1;entryY=0.5;entryDx=0;entryDy=0;exitX=0;exitY=0.5;exitDx=0;exitDy=0;strokeColor=#000000;" parent="1" edge="1">
                        <mxGeometry width="50" height="50" relative="1" as="geometry">
                            <mxPoint x="219.5" y="564.5500000000002" as="sourcePoint"/>
                            <mxPoint x="219.5" y="271.0300000000002" as="targetPoint"/>
                        </mxGeometry>
                    </mxCell>
                </object>
                <object label="" type="map-path" id="6PKThLHFwi0k3xtgdqfl-4">
                    <mxCell style="endArrow=classic;startArrow=classic;html=1;rounded=0;curved=1;entryX=1;entryY=0.5;entryDx=0;entryDy=0;exitX=0;exitY=0.5;exitDx=0;exitDy=0;strokeColor=#000000;" parent="1" edge="1">
                        <mxGeometry width="50" height="50" relative="1" as="geometry">
                            <mxPoint x="418.23" y="1349.1849999999997" as="sourcePoint"/>
                            <mxPoint x="416.7299999999998" y="274.3950000000002" as="targetPoint"/>
                        </mxGeometry>
                    </mxCell>
                </object>
                <object label="" type="map-path" id="6PKThLHFwi0k3xtgdqfl-6">
                    <mxCell style="endArrow=classic;startArrow=classic;html=1;rounded=0;curved=1;entryX=1;entryY=0.5;entryDx=0;entryDy=0;exitX=0;exitY=0.5;exitDx=0;exitDy=0;strokeColor=#000000;" parent="1" edge="1">
                        <mxGeometry width="50" height="50" relative="1" as="geometry">
                            <mxPoint x="165.51" y="1332.5" as="sourcePoint"/>
                            <mxPoint x="925.51" y="1332.5" as="targetPoint"/>
                        </mxGeometry>
                    </mxCell>
                </object>
                <object label="" type="map-path" id="6PKThLHFwi0k3xtgdqfl-7">
                    <mxCell style="endArrow=classic;startArrow=classic;html=1;rounded=0;curved=1;entryX=1;entryY=0.5;entryDx=0;entryDy=0;exitX=0;exitY=0.5;exitDx=0;exitDy=0;strokeColor=#000000;" parent="1" edge="1">
                        <mxGeometry width="50" height="50" relative="1" as="geometry">
                            <mxPoint x="95.50999999999999" y="799.5" as="sourcePoint"/>
                            <mxPoint x="700.51" y="800" as="targetPoint"/>
                        </mxGeometry>
                    </mxCell>
                </object>
                <object label="" type="map-path" id="6PKThLHFwi0k3xtgdqfl-9">
                    <mxCell style="endArrow=classic;startArrow=classic;html=1;rounded=0;curved=1;exitX=1;exitY=0.5;exitDx=0;exitDy=0;strokeColor=#000000;" parent="1" edge="1">
                        <mxGeometry width="50" height="50" relative="1" as="geometry">
                            <mxPoint x="700.51" y="800" as="sourcePoint"/>
                            <mxPoint x="925.51" y="720" as="targetPoint"/>
                        </mxGeometry>
                    </mxCell>
                </object>
                <object label="" type="map-path" id="6PKThLHFwi0k3xtgdqfl-12">
                    <mxCell style="endArrow=classic;startArrow=classic;html=1;rounded=0;curved=1;entryX=0.5;entryY=1;entryDx=0;entryDy=0;strokeColor=#000000;" parent="1" edge="1">
                        <mxGeometry x="0.3332" y="-1" width="50" height="50" relative="1" as="geometry">
                            <mxPoint x="255.51" y="300" as="sourcePoint"/>
                            <mxPoint x="254.51" y="195" as="targetPoint"/>
                            <mxPoint as="offset"/>
                        </mxGeometry>
                    </mxCell>
                </object>
                <object label="" type="map-path" id="6PKThLHFwi0k3xtgdqfl-13">
                    <mxCell style="endArrow=classic;startArrow=classic;html=1;rounded=0;curved=1;exitX=0.093;exitY=-0.053;exitDx=0;exitDy=0;exitPerimeter=0;strokeColor=#000000;" parent="1" edge="1">
                        <mxGeometry width="50" height="50" relative="1" as="geometry">
                            <mxPoint x="700.7241399999998" y="800.04975" as="sourcePoint"/>
                            <mxPoint x="925.51" y="940" as="targetPoint"/>
                        </mxGeometry>
                    </mxCell>
                </object>
                <object label="" type="map-path" id="6PKThLHFwi0k3xtgdqfl-14">
                    <mxCell style="endArrow=classic;startArrow=classic;html=1;rounded=0;curved=1;exitX=0;exitY=0.5;exitDx=0;exitDy=0;entryX=1.005;entryY=0.501;entryDx=0;entryDy=0;entryPerimeter=0;strokeColor=#000000;" parent="1" edge="1">
                        <mxGeometry width="50" height="50" relative="1" as="geometry">
                            <mxPoint x="671.2049999999999" y="769.755" as="sourcePoint"/>
                            <mxPoint x="671.1516199999999" y="1097.13375" as="targetPoint"/>
                        </mxGeometry>
                    </mxCell>
                </object>
                <object label="" type="map-path" id="6PKThLHFwi0k3xtgdqfl-15">
                    <mxCell style="endArrow=classic;startArrow=classic;html=1;rounded=0;curved=1;entryX=1;entryY=0.5;entryDx=0;entryDy=0;strokeColor=#000000;" parent="1" edge="1">
                        <mxGeometry width="50" height="50" relative="1" as="geometry">
                            <mxPoint x="802.51" y="1510" as="sourcePoint"/>
                            <mxPoint x="802.7099999999998" y="1300.0000000000002" as="targetPoint"/>
                        </mxGeometry>
                    </mxCell>
                </object>
                <object label="" type="map-path" id="6PKThLHFwi0k3xtgdqfl-16">
                    <mxCell style="endArrow=classic;startArrow=classic;html=1;rounded=0;curved=1;exitX=0;exitY=0.5;exitDx=0;exitDy=0;strokeColor=#000000;" parent="1" edge="1">
                        <mxGeometry width="50" height="50" relative="1" as="geometry">
                            <mxPoint x="1079.51" y="799.25" as="sourcePoint"/>
                            <mxPoint x="1635.51" y="800" as="targetPoint"/>
                        </mxGeometry>
                    </mxCell>
                </object>
                <object label="" type="map-path" id="6PKThLHFwi0k3xtgdqfl-17">
                    <mxCell style="endArrow=classic;startArrow=classic;html=1;rounded=0;curved=1;exitX=0;exitY=0.5;exitDx=0;exitDy=0;strokeColor=#000000;" parent="1" edge="1">
                        <mxGeometry width="50" height="50" relative="1" as="geometry">
                            <mxPoint x="1184.2099999999998" y="904" as="sourcePoint"/>
                            <mxPoint x="1405.51" y="905" as="targetPoint"/>
                        </mxGeometry>
                    </mxCell>
                </object>
                <object label="" type="map-path" id="6PKThLHFwi0k3xtgdqfl-18">
                    <mxCell style="endArrow=classic;startArrow=classic;html=1;rounded=0;curved=1;exitX=0;exitY=0.5;exitDx=0;exitDy=0;entryX=0.338;entryY=0;entryDx=0;entryDy=0;entryPerimeter=0;strokeColor=#000000;" parent="1" edge="1">
                        <mxGeometry width="50" height="50" relative="1" as="geometry">
                            <mxPoint x="1374.4400000000003" y="1351.515" as="sourcePoint"/>
                            <mxPoint x="1374.1499999999999" y="274" as="targetPoint"/>
                        </mxGeometry>
                    </mxCell>
                </object>
                <object label="" type="map-path" id="6PKThLHFwi0k3xtgdqfl-19">
                    <mxCell style="endArrow=classic;startArrow=classic;html=1;rounded=0;curved=1;exitX=0;exitY=0.5;exitDx=0;exitDy=0;entryX=1;entryY=0.5;entryDx=0;entryDy=0;strokeColor=#000000;" parent="1" edge="1">
                        <mxGeometry width="50" height="50" relative="1" as="geometry">
                            <mxPoint x="1161.51" y="1332" as="sourcePoint"/>
                            <mxPoint x="1890.51" y="1331.5" as="targetPoint"/>
                        </mxGeometry>
                    </mxCell>
                </object>
                <object label="" type="map-path" id="6PKThLHFwi0k3xtgdqfl-21">
                    <mxCell style="endArrow=classic;startArrow=classic;html=1;rounded=0;curved=1;entryX=1;entryY=0.5;entryDx=0;entryDy=0;strokeColor=#000000;" parent="1" edge="1">
                        <mxGeometry width="50" height="50" relative="1" as="geometry">
                            <mxPoint x="1635.51" y="800" as="sourcePoint"/>
                            <mxPoint x="1888.2583620525577" y="949.4674999999997" as="targetPoint"/>
                        </mxGeometry>
                    </mxCell>
                </object>
                <object label="" type="map-path" id="6PKThLHFwi0k3xtgdqfl-22">
                    <mxCell style="endArrow=classic;startArrow=classic;html=1;rounded=0;curved=1;entryX=1;entryY=0.5;entryDx=0;entryDy=0;strokeColor=#000000;" parent="1" edge="1">
                        <mxGeometry width="50" height="50" relative="1" as="geometry">
                            <mxPoint x="1635.51" y="800" as="sourcePoint"/>
                            <mxPoint x="1633.175" y="1095.5049999999999" as="targetPoint"/>
                        </mxGeometry>
                    </mxCell>
                </object>
                <object label="" type="map-path" id="6PKThLHFwi0k3xtgdqfl-23">
                    <mxCell style="endArrow=classic;startArrow=classic;html=1;rounded=0;curved=1;entryX=0.338;entryY=0;entryDx=0;entryDy=0;entryPerimeter=0;strokeColor=#000000;" parent="1" edge="1">
                        <mxGeometry width="50" height="50" relative="1" as="geometry">
                            <mxPoint x="1889.51" y="1330" as="sourcePoint"/>
                            <mxPoint x="1889.3300000000002" y="288.18" as="targetPoint"/>
                        </mxGeometry>
                    </mxCell>
                </object>
                <object label="" type="map-path" id="6PKThLHFwi0k3xtgdqfl-24">
                    <mxCell style="endArrow=classic;startArrow=classic;html=1;rounded=0;curved=1;exitX=0;exitY=0.5;exitDx=0;exitDy=0;entryX=1;entryY=0.5;entryDx=0;entryDy=0;strokeColor=#000000;" parent="1" edge="1">
                        <mxGeometry width="50" height="50" relative="1" as="geometry">
                            <mxPoint x="1110.51" y="293.5" as="sourcePoint"/>
                            <mxPoint x="1890.51" y="294" as="targetPoint"/>
                        </mxGeometry>
                    </mxCell>
                </object>
                <object label="" type="map-path" id="6PKThLHFwi0k3xtgdqfl-25">
                    <mxCell style="endArrow=classic;startArrow=classic;html=1;rounded=0;curved=1;exitX=0;exitY=0.5;exitDx=0;exitDy=0;strokeColor=#000000;" parent="1" edge="1">
                        <mxGeometry width="50" height="50" relative="1" as="geometry">
                            <mxPoint x="1068.2099999999998" y="680" as="sourcePoint"/>
                            <mxPoint x="1885.51" y="680" as="targetPoint"/>
                        </mxGeometry>
                    </mxCell>
                </object>
                <object label="" type="map-path" id="WK-kFm7S_nNFkqmTpF3W-2">
                    <mxCell style="endArrow=classic;startArrow=classic;html=1;rounded=0;curved=1;strokeColor=#000000;" parent="1" edge="1">
                        <mxGeometry width="50" height="50" relative="1" as="geometry">
                            <mxPoint x="415.51" y="1250" as="sourcePoint"/>
                            <mxPoint x="805.51" y="1250" as="targetPoint"/>
                        </mxGeometry>
                    </mxCell>
                </object>
                <object label="" type="map-path" id="S2CpxsG63FQTSz3CtGuM-2">
                    <mxCell style="endArrow=classic;startArrow=classic;html=1;rounded=0;curved=1;exitX=0;exitY=0.5;exitDx=0;exitDy=0;" parent="1" edge="1">
                        <mxGeometry width="50" height="50" relative="1" as="geometry">
                            <mxPoint x="105.50999999999999" y="670" as="sourcePoint"/>
                            <mxPoint x="415.51" y="671" as="targetPoint"/>
                        </mxGeometry>
                    </mxCell>
                </object>
                <mxCell id="wKvVRlLbx7-Db6RnmoMW-1" value="" style="verticalLabelPosition=bottom;html=1;verticalAlign=top;align=center;shape=mxgraph.floorplan.wall;rotation=-180;direction=east;" parent="1" vertex="1">
                    <mxGeometry x="69.50999999999999" y="1540" width="100.03" height="10" as="geometry"/>
                </mxCell>
                <mxCell id="wKvVRlLbx7-Db6RnmoMW-2" value="" style="verticalLabelPosition=bottom;html=1;verticalAlign=top;align=center;shape=mxgraph.floorplan.wall;rotation=-90;direction=east;" parent="1" vertex="1">
                    <mxGeometry x="60" y="1524.49" width="29.02" height="10" as="geometry"/>
                </mxCell>
                <mxCell id="wKvVRlLbx7-Db6RnmoMW-3" value="" style="verticalLabelPosition=bottom;html=1;verticalAlign=top;align=center;shape=mxgraph.floorplan.wall;direction=south;rotation=0;" parent="1" vertex="1">
                    <mxGeometry x="1389.51" y="160" width="10" height="95" as="geometry"/>
                </mxCell>
                <mxCell id="wKvVRlLbx7-Db6RnmoMW-4" value="" style="verticalLabelPosition=bottom;html=1;verticalAlign=top;align=center;shape=mxgraph.floorplan.wall;rotation=0;" parent="1" vertex="1">
                    <mxGeometry x="1345.51" y="245" width="45" height="10" as="geometry"/>
                </mxCell>
                <mxCell id="wKvVRlLbx7-Db6RnmoMW-5" value="" style="verticalLabelPosition=bottom;html=1;verticalAlign=top;align=center;shape=mxgraph.floorplan.wall;direction=south;rotation=0;" parent="1" vertex="1">
                    <mxGeometry x="1729.51" y="160" width="10" height="95" as="geometry"/>
                </mxCell>
                <mxCell id="wKvVRlLbx7-Db6RnmoMW-6" value="" style="verticalLabelPosition=bottom;html=1;verticalAlign=top;align=center;shape=mxgraph.floorplan.wall;rotation=0;" parent="1" vertex="1">
                    <mxGeometry x="1685.51" y="245" width="54" height="10" as="geometry"/>
                </mxCell>
                <mxCell id="wKvVRlLbx7-Db6RnmoMW-7" value="" style="verticalLabelPosition=bottom;html=1;verticalAlign=top;align=center;shape=mxgraph.floorplan.wall;rotation=90;" parent="1" vertex="1">
                    <mxGeometry x="1823.01" y="602.5" width="65" height="10" as="geometry"/>
                </mxCell>
                <mxCell id="wKvVRlLbx7-Db6RnmoMW-8" value="" style="verticalLabelPosition=bottom;html=1;verticalAlign=top;align=center;shape=mxgraph.floorplan.wall;rotation=-180;" parent="1" vertex="1">
                    <mxGeometry x="1785.51" y="630" width="65" height="10" as="geometry"/>
                </mxCell>
                <mxCell id="wKvVRlLbx7-Db6RnmoMW-9" value="" style="verticalLabelPosition=bottom;html=1;verticalAlign=top;align=center;shape=mxgraph.floorplan.wall;rotation=-90;" parent="1" vertex="1">
                    <mxGeometry x="1139.51" y="541.5" width="98" height="10" as="geometry"/>
                </mxCell>
                <mxCell id="wKvVRlLbx7-Db6RnmoMW-10" value="" style="verticalLabelPosition=bottom;html=1;verticalAlign=top;align=center;shape=mxgraph.floorplan.wall;rotation=0;" parent="1" vertex="1">
                    <mxGeometry x="1125.51" y="590" width="68" height="10" as="geometry"/>
                </mxCell>
                <mxCell id="2" value="" style="verticalLabelPosition=bottom;html=1;verticalAlign=top;align=center;shape=mxgraph.floorplan.wall;" parent="1" vertex="1">
                    <mxGeometry x="860" y="480" width="40" height="10" as="geometry"/>
                </mxCell>
            </root>
        </mxGraphModel>
    </diagram>
</mxfile>